<?xml version="1.0" encoding="UTF-8"?>
<svg version="1.1" xmlns="http://www.w3.org/2000/svg" width="204" height="224">
<path d="M0 0 C58.08 0 116.16 0 176 0 C175.38520107 11.06638072 174.72617733 22.05754684 173.72485352 33.08422852 C173.59962193 34.48783155 173.47465085 35.89145785 173.34991455 37.29510498 C173.01586341 41.04531484 172.67807402 44.79517862 172.33939099 48.54497266 C171.9820538 52.50726114 171.6278594 56.46983085 171.2731781 60.43235779 C170.67766382 67.08001714 170.0797028 73.72745287 169.48022461 80.37475586 C168.79136651 88.01346821 168.1063561 95.65251815 167.42341858 103.29176193 C166.76087568 110.70190279 166.09563217 118.11179889 165.42918205 125.52158928 C165.14807993 128.64743517 164.86787671 131.77335958 164.58844185 134.89935493 C161.79918403 166.08157325 161.79918403 166.08157325 160 180 C159.40103912 180.16429001 158.80207825 180.32858002 158.18496704 180.49784851 C151.85628903 182.23381433 145.52772366 183.97019036 139.19921875 185.70678711 C136.84866071 186.35174556 134.49807554 186.99660516 132.14746094 187.64135742 C129.86429769 188.26762151 127.58123621 188.89425672 125.29827881 189.52127075 C123.04452509 190.13924728 120.79017039 190.75503621 118.53521729 191.36862183 C113.5617385 192.72544645 108.60187934 194.10327114 103.67089844 195.60791016 C102.86598969 195.84838577 102.06108093 196.08886139 101.23178101 196.33662415 C99.79107712 196.7698847 98.35437167 197.21686618 96.92373657 197.68229675 C87.2977431 200.54524359 77.94460558 197.40274367 68.59765625 194.7265625 C67.43930771 194.40215179 66.28095917 194.07774109 65.08750916 193.74349976 C61.41025966 192.71179615 57.73636714 191.6686766 54.0625 190.625 C51.59982723 189.93151757 49.13693833 189.23880214 46.67382812 188.546875 C42.13021901 187.26993208 37.58809728 185.98792409 33.04711914 184.70166016 C27.37438327 183.09850435 21.68965885 181.54184595 16 180 C14.64837606 168.93070351 13.47080542 157.86140743 12.48779297 146.75317383 C12.34976449 145.21360548 12.21153385 143.67405524 12.07312012 142.13452148 C11.70325329 138.01355284 11.33635734 133.89232507 10.97020483 129.77102494 C10.6629511 126.31603922 10.35415514 122.86119203 10.04536164 119.40634364 C9.3173334 111.26091244 8.59169098 103.11527124 7.86767578 94.96948242 C7.12203419 86.58076497 6.37270372 78.19238285 5.62153137 69.80415899 C4.97411655 62.57338195 4.32876727 55.34242268 3.6851207 48.11130923 C3.3017412 43.80428168 2.91763274 39.49732252 2.5316124 35.19053078 C2.16969492 31.15145901 1.81037002 27.11216478 1.45303345 23.07268524 C1.32172695 21.59316853 1.18952078 20.11373135 1.05633926 18.63438225 C0.87444448 16.61229434 0.69615494 14.5898831 0.51803589 12.56745911 C0.41739271 11.43729779 0.31674953 10.30713648 0.21305656 9.14272785 C0.00686787 6.10130564 0 3.04840333 0 0 Z " fill="#E5A228" transform="translate(13,14)"/>
<path d="M0 0 C29.04 0 58.08 0 88 0 C88.495 7.92 88.495 7.92 89 16 C89.32169458 18.87881427 89.66798361 21.75525857 90.0625 24.625 C91.03735112 32.14891849 91.15999773 39.40010777 91 47 C83.74 47 76.48 47 69 47 C68.01 36.11 68.01 36.11 67 25 C51.49 24.67 35.98 24.34 20 24 C19.38413139 32.5702414 19.38413139 32.5702414 18.77368164 41.14086914 C18.65561157 42.75916626 18.65561157 42.75916626 18.53515625 44.41015625 C18.456604 45.50465088 18.37805176 46.59914551 18.29711914 47.72680664 C17.98508957 51.1642598 17.48812799 54.58310408 17 58 C41.42 58 65.84 58 91 58 C91 64.99315119 90.89101413 71.60176605 90.1875 78.5 C90.00534827 80.38790907 89.82445639 82.27593993 89.64453125 84.1640625 C89.49298584 85.74622559 89.49298584 85.74622559 89.33837891 87.36035156 C88.64100246 94.86142522 88.01370716 102.36874425 87.375 109.875 C87.23857791 111.47331178 87.10210437 113.07161916 86.96557617 114.66992188 C86.64309103 118.44656143 86.32132861 122.22326188 86 126 C84.74135132 126.28133789 84.74135132 126.28133789 83.45727539 126.56835938 C77.04720125 128.02076684 70.7189568 129.56825492 64.4375 131.5 C59.43214275 132.99731461 54.42694556 134.47838171 49.375 135.8125 C48.49585938 136.04582031 47.61671875 136.27914062 46.7109375 136.51953125 C39.35137728 137.82389135 33.12938617 136.24408051 26.0625 134.3125 C24.54910034 133.90801636 24.54910034 133.90801636 23.00512695 133.49536133 C1.20601672 127.60300836 1.20601672 127.60300836 -4 125 C-4.50244141 122.62670898 -4.50244141 122.62670898 -4.8515625 119.49609375 C-5.04492188 117.79549805 -5.04492188 117.79549805 -5.2421875 116.06054688 C-5.36851563 114.86494141 -5.49484375 113.66933594 -5.625 112.4375 C-5.7590625 111.26896484 -5.893125 110.10042969 -6.03125 108.89648438 C-6.70175267 102.83117196 -7 97.14536586 -7 91 C0.26 91 7.52 91 15 91 C15.66 96.61 16.32 102.22 17 108 C20.43052663 109.07185033 23.86590471 110.1072433 27.3125 111.125 C28.26962891 111.42792969 29.22675781 111.73085937 30.21289062 112.04296875 C39.97033317 114.86835615 47.57095332 112.98887315 57.0625 109.875 C62.81751825 108 62.81751825 108 65 108 C65.06058594 106.90042969 65.12117188 105.80085938 65.18359375 104.66796875 C65.26813121 103.17447362 65.35277227 101.68098435 65.4375 100.1875 C65.47681641 99.46884766 65.51613281 98.75019531 65.55664062 98.00976562 C65.90177971 91.98310615 66.45252942 86.02217634 67 80 C42.58 80 18.16 80 -7 80 C-7 68.75283447 -7 68.75283447 -6.44921875 63.33203125 C-6.3291748 62.12361572 -6.20913086 60.9152002 -6.08544922 59.67016602 C-5.95412598 58.39713623 -5.82280273 57.12410645 -5.6875 55.8125 C-5.55174133 54.46220886 -5.41649741 53.11186587 -5.28173828 51.76147461 C-5.00041824 48.94560736 -4.71687513 46.1299758 -4.43212891 43.31445312 C-3.99745605 38.99734742 -3.5804803 34.678648 -3.16796875 30.359375 C-3.06753517 29.3095771 -3.06753517 29.3095771 -2.96507263 28.23857117 C-2.64360703 24.8769657 -2.32288 21.51529132 -2.00268555 18.15356445 C-1.88578369 16.93886475 -1.76888184 15.72416504 -1.6484375 14.47265625 C-1.54708496 13.41312744 -1.44573242 12.35359863 -1.34130859 11.26196289 C-0.9478897 7.50197012 -0.46891567 3.75132539 0 0 Z " fill="#ECEBE9" transform="translate(60,37)"/>
<path d="M0 0 C23.43 0 46.86 0 71 0 C71 6.16226019 70.82595725 12.01889472 70.1953125 18.109375 C70.07020294 19.37008568 70.07020294 19.37008568 69.94256592 20.65626526 C69.76523761 22.43767507 69.58591863 24.21888773 69.40472412 25.99990845 C69.12131354 28.78624323 68.8433916 31.57307866 68.56689453 34.36010742 C68.04890307 39.57384134 67.52528362 44.78699639 67 50 C65.89548571 60.97344099 64.92328527 71.93274737 64.1875 82.9375 C62.61901797 106.32886418 60.21085289 129.6626669 58 153 C57.17074509 153.20314064 57.17074509 153.20314064 56.32473755 153.41038513 C42.01087865 156.91315974 42.01087865 156.91315974 27.875 161.0625 C18.67177726 163.91657048 9.4307942 166.02257541 0 168 C0 160.74 0 153.48 0 146 C-0.66 145.67 -1.32 145.34 -2 145 C-0.07414062 144.56300781 -0.07414062 144.56300781 1.890625 144.1171875 C12.19898863 141.73924102 22.35794969 139.14705961 32.42480469 135.88037109 C33.20114258 135.63496582 33.97748047 135.38956055 34.77734375 135.13671875 C35.45015381 134.91717529 36.12296387 134.69763184 36.81616211 134.47143555 C39.5756447 133.87573282 42.18609552 133.9269344 45 134 C44.98404785 133.22035889 44.9680957 132.44071777 44.95166016 131.63745117 C44.85760548 123.42721092 45.43056933 115.46275504 46.375 107.3125 C47.94548831 93.55470189 48.93619038 79.82952507 50 66 C25.58 66 1.16 66 -24 66 C-22.33333333 36 -22.33333333 36 -21 32 C-14.3247966 31.97473055 -7.64960543 31.95716732 -0.97436523 31.94506836 C1.29842591 31.94002675 3.5712138 31.93319363 5.84399414 31.92456055 C9.10303551 31.91248739 12.36203417 31.90677013 15.62109375 31.90234375 C16.64400009 31.89718246 17.66690643 31.89202118 18.72080994 31.88670349 C19.66170975 31.88662796 20.60260956 31.88655243 21.57202148 31.88647461 C22.40475082 31.884254 23.23748016 31.88203339 24.09544373 31.87974548 C26 32 26 32 27 33 C28.23534606 40.27481569 28.08547684 47.64899173 28 55 C35.26 55 42.52 55 50 55 C49.69069891 50.95806532 49.37768154 46.91647677 49.0625 42.875 C48.97548828 41.73289063 48.88847656 40.59078125 48.79882812 39.4140625 C48.71181641 38.30546875 48.62480469 37.196875 48.53515625 36.0546875 C48.456604 35.03874512 48.37805176 34.02280273 48.29711914 32.97607422 C47.9967977 29.96792437 47.49699526 26.98197153 47 24 C47 18.72 47 13.44 47 8 C31.49 8 15.98 8 0 8 C0 5.36 0 2.72 0 0 Z " fill="#F1BF27" transform="translate(101,29)"/>
<path d="M0 0 C16.5 0 33 0 50 0 C50 6.99315119 49.89101413 13.60176605 49.1875 20.5 C49.00534827 22.38790907 48.82445639 24.27593993 48.64453125 26.1640625 C48.49298584 27.74622559 48.49298584 27.74622559 48.33837891 29.36035156 C47.64100246 36.86142522 47.01370716 44.36874425 46.375 51.875 C46.23857791 53.47331178 46.10210437 55.07161916 45.96557617 56.66992188 C45.64309103 60.44656143 45.32132861 64.22326188 45 68 C43.74135132 68.28133789 43.74135132 68.28133789 42.45727539 68.56835938 C36.04720125 70.02076684 29.7189568 71.56825492 23.4375 73.5 C18.43214275 74.99731461 13.42694556 76.47838171 8.375 77.8125 C7.05628906 78.16248047 7.05628906 78.16248047 5.7109375 78.51953125 C-1.64862272 79.82389135 -7.87061383 78.24408051 -14.9375 76.3125 C-16.45089966 75.90801636 -16.45089966 75.90801636 -17.99487305 75.49536133 C-39.79398328 69.60300836 -39.79398328 69.60300836 -45 67 C-45.50244141 64.62670898 -45.50244141 64.62670898 -45.8515625 61.49609375 C-45.98046875 60.36236328 -46.109375 59.22863281 -46.2421875 58.06054688 C-46.36851563 56.86494141 -46.49484375 55.66933594 -46.625 54.4375 C-46.7590625 53.26896484 -46.893125 52.10042969 -47.03125 50.89648438 C-47.70175267 44.83117196 -48 39.14536586 -48 33 C-40.74 33 -33.48 33 -26 33 C-25.34 38.61 -24.68 44.22 -24 50 C-20.56947337 51.07185033 -17.13409529 52.1072433 -13.6875 53.125 C-12.73037109 53.42792969 -11.77324219 53.73085937 -10.78710938 54.04296875 C-1.02966683 56.86835615 6.57095332 54.98887315 16.0625 51.875 C21.81751825 50 21.81751825 50 24 50 C24.06058594 48.90042969 24.12117188 47.80085938 24.18359375 46.66796875 C24.26813121 45.17447362 24.35277227 43.68098435 24.4375 42.1875 C24.47681641 41.46884766 24.51613281 40.75019531 24.55664062 40.00976562 C24.90177971 33.98310615 25.45252942 28.02217634 26 22 C17.42 22 8.84 22 0 22 C0 14.74 0 7.48 0 0 Z " fill="#FEFEFC" transform="translate(101,95)"/>
<path d="M0 0 C15.18 0 30.36 0 46 0 C48.29016892 16.03118242 50.15761978 30.08040219 50 46 C42.74 46 35.48 46 28 46 C27.34 38.74 26.68 31.48 26 24 C17.42 23.34 8.84 22.68 0 22 C0 14.74 0 7.48 0 0 Z " fill="#FEFEFD" transform="translate(101,38)"/>
<path d="M0 0 C7.26 0 14.52 0 22 0 C22.66 5.61 23.32 11.22 24 17 C25.56492187 17.42152344 27.12984375 17.84304687 28.7421875 18.27734375 C30.78648846 18.83061786 32.83075766 19.38400935 34.875 19.9375 C35.90753906 20.21529297 36.94007812 20.49308594 38.00390625 20.77929688 C38.99003906 21.04677734 39.97617188 21.31425781 40.9921875 21.58984375 C41.90339355 21.83597412 42.81459961 22.08210449 43.75341797 22.33569336 C46 23 46 23 48 24 C48 31.26 48 38.52 48 46 C37.93865031 44.88207226 37.93865031 44.88207226 33.0625 43.25 C26.81338466 41.22844439 20.52087332 39.45648503 14.17993164 37.75097656 C13.4502417 37.55213867 12.72055176 37.35330078 11.96875 37.1484375 C11.00098633 36.88812744 11.00098633 36.88812744 10.01367188 36.62255859 C7.61617152 35.88133334 5.31918932 34.95593645 3 34 C2.49233064 29.83423084 1.99525277 25.66726208 1.5 21.5 C1.35691406 20.32695312 1.21382812 19.15390625 1.06640625 17.9453125 C0.93105469 16.79804688 0.79570313 15.65078125 0.65625 14.46875 C0.53056641 13.42138672 0.40488281 12.37402344 0.27539062 11.29492188 C-0.03828691 7.54191482 0 3.76609288 0 0 Z " fill="#ECECEC" transform="translate(53,128)"/>
<path d="M0 0 C8.58 0 17.16 0 26 0 C26 6.96920464 25.90546423 13.36592828 25 20.1875 C24.85691406 21.32928711 24.85691406 21.32928711 24.7109375 22.49414062 C24.4799872 24.33019549 24.2409083 26.16522516 24 28 C18.57639774 29.87020767 13.12218416 31.60768772 7.625 33.25 C5.84996094 33.78367187 5.84996094 33.78367187 4.0390625 34.328125 C1 35 1 35 -2 34 C-1.34 34 -0.68 34 0 34 C0 22.78 0 11.56 0 0 Z " fill="#F1BF28" transform="translate(101,117)"/>
<path d="M0 0 C6.93 0 13.86 0 21 0 C21 11.22 21 22.44 21 34 C13.08 34 5.16 34 -3 34 C-1.40909091 4.22727273 -1.40909091 4.22727273 0 0 Z " fill="#E5A32A" transform="translate(80,61)"/>
</svg>
